<svg xmlns:xlink="http://www.w3.org/1999/xlink" width="157" height="24" viewBox="0 0 157 24" fill="none" xmlns="http://www.w3.org/2000/svg"><path d="M17.9277 15.3708C17.9277 20.477 14.1362 24 8.96387 24C3.78925 24 0 20.477 0 15.3708C0 10.2646 3.79153 6.74162 8.96387 6.74162C14.1385 6.74162 17.9277 10.2646 17.9277 15.3708ZM52.8626 15.3708C52.8626 20.477 49.0711 24 43.8988 24C38.7264 24 34.9349 20.477 34.9349 15.3708C34.9349 10.2646 38.7264 6.74162 43.8988 6.74162C49.0711 6.74162 52.8626 10.2646 52.8626 15.3708ZM71.1002 13.481V23.439H66.7459V14.4009C66.7459 11.7978 65.5155 10.7234 63.4169 10.7234C61.2136 10.7234 59.6254 11.9478 59.6254 15.473V23.439H55.2711V7.25042H59.5753V9.7013H59.6778C60.7533 7.86371 62.5989 6.73935 64.955 6.73935C68.4867 6.74162 71.1002 8.68143 71.1002 13.481ZM136.738 7.25042V23.439H132.383V16.9018H125.415V23.439H121.061V7.25042H125.415V13.1221H132.383V7.25042H136.738ZM113.02 7.25042V9.59909H112.918C112.15 7.96593 110.099 6.73935 107.488 6.73935C103.236 6.73935 99.752 9.80352 99.752 15.3186C99.752 20.8859 103.133 24 107.488 24C110.151 24 112.047 22.7734 112.918 21.2425H113.02V23.439H117.374V7.25042H113.02ZM89.9702 7.09824C87.3065 7.09824 85.2581 8.32481 84.1826 10.2646H84.0801C84.2327 6.68938 85.4632 5.15843 89.6626 4.74957L96.1678 4.13628V0L88.9448 0.561045C81.8767 1.12209 79.7759 5.9239 79.7759 13.5832C79.7759 20.3748 83.7201 24 88.8423 24C93.9144 24 97.8061 20.3748 97.8061 15.3186C97.8061 10.2646 94.2721 7.09824 89.9702 7.09824ZM19.5159 7.25042V10.9279H28.0696L19.3108 19.9659V23.439H33.8594V19.7615H24.6905L33.4493 10.6712V7.25042H19.5159ZM108.616 20.0681C106.002 20.0681 104.314 18.1283 104.314 15.4208C104.314 12.6633 106.004 10.6712 108.616 10.6712C111.227 10.6712 113.02 12.611 113.02 15.3685C113.02 18.0761 111.227 20.0681 108.616 20.0681ZM4.55941 15.3708C4.55941 18.1783 6.30023 20.0182 8.96387 20.0182C11.6275 20.0182 13.3683 18.1806 13.3683 15.3708C13.3683 12.561 11.6275 10.7234 8.96387 10.7234C6.30023 10.7234 4.55941 12.561 4.55941 15.3708ZM39.4943 15.3708C39.4943 18.1783 41.2351 20.0182 43.8988 20.0182C46.5624 20.0182 48.3032 18.1806 48.3032 15.3708C48.3032 12.561 46.5624 10.7234 43.8988 10.7234C41.2351 10.7234 39.4943 12.561 39.4943 15.3708ZM88.7899 20.0681C86.2812 20.0681 84.333 18.1783 84.333 15.3708C84.333 12.5111 86.2789 10.8257 88.7899 10.8257C91.3008 10.8257 93.2467 12.5111 93.2467 15.3708C93.2467 18.1783 91.3008 20.0681 88.7899 20.0681ZM150.671 23.439L144.781 15.6775V23.439H140.427V7.25042H144.781V13.9398L150.211 7.25042H155.59L148.93 14.6031L156.203 23.4367H150.671V23.439Z" class="svelte-1i9i05b" fill="#005BFF"></path></svg>