<svg xmlns:xlink="http://www.w3.org/1999/xlink" xmlns="http://www.w3.org/2000/svg" id="icon" viewBox="0 0 143 32" fill="none" width="143"  height="32" >
  <g fill="white">
    <path d="M39.6952 16.2639C39.6952 11.7077 43.0534 8.25516 47.6428 8.25516C51.3088 8.25516 54.1636 10.5392 55.0631 13.8307H51.7037C50.9796 12.2379 49.5086 11.2641 47.6202 11.2641C44.788 11.2641 42.8566 13.3667 42.8566 16.2639C42.8566 19.1611 44.788 21.2648 47.6202 21.2648C49.5086 21.2648 50.9796 20.2911 51.7037 18.6982H55.0631C54.1636 21.9945 51.3088 24.2738 47.6428 24.2738C43.0534 24.2726 39.6952 20.8212 39.6952 16.2639Z"/>
    <path d="M59.8112 7.7226H56.6713V24.0081H59.8112V7.7226Z"/>
    <path d="M64.768 17.924C64.768 19.9364 66.1292 21.2648 67.8852 21.2648C69.6413 21.2648 71.0037 19.9424 71.0037 17.924C71.0037 15.9333 69.6425 14.5833 67.8852 14.5833C66.128 14.5833 64.768 15.9333 64.768 17.924ZM74.1925 17.924C74.1925 21.5966 71.426 24.2738 67.8912 24.2738C64.3779 24.2738 61.6125 21.575 61.6125 17.924C61.6125 14.2515 64.422 11.5743 67.8912 11.5743C71.3759 11.5743 74.1865 14.2503 74.1865 17.924H74.1925Z"/>
    <path d="M87.1578 11.8399V24.0069H84.0179V22.3239C83.1399 23.5621 81.9576 24.2726 80.2874 24.2726C77.6307 24.2726 75.9844 22.4369 75.9844 19.4712V11.8387H79.1243V18.786C79.1243 20.3788 79.7208 21.2636 81.342 21.2636C83.0766 21.2636 84.0215 20.2237 84.0215 18.233V11.8387H87.1602L87.1578 11.8399Z"/>
    <path d="M98.2084 17.9228C98.2084 15.9321 96.8687 14.5821 95.1138 14.5821C93.359 14.5821 92.0622 15.9321 92.0622 17.9228C92.0622 19.9364 93.3745 21.2648 95.1138 21.2648C96.8699 21.2648 98.2084 19.9364 98.2084 17.9228ZM101.347 7.7226V24.0069H98.2072V22.3708C97.3721 23.52 96.0992 24.2738 94.41 24.2738C91.2701 24.2738 88.8996 21.6627 88.8996 17.9228C88.8996 14.1625 91.2856 11.5731 94.3873 11.5731C95.1355 11.5583 95.8756 11.7304 96.5418 12.074C97.2079 12.4176 97.7792 12.922 98.2048 13.5422V7.7226H101.347Z"/>
    <path d="M102.405 7.69135H114.645V9.43566H109.588V23.9793H107.462V9.43566H102.405V7.69135Z"/>
    <path d="M115.533 11.7811H117.561V23.9793H115.533V11.7811ZM115.488 7.17322H117.612V9.78308H115.488V7.17322Z"/>
    <path d="M126.067 22.6545C128.283 22.6545 129.668 20.7467 129.668 17.8844C129.668 15.0221 128.283 13.1142 126.067 13.1142C123.826 13.1142 122.44 15.0221 122.44 17.8844C122.44 20.7467 123.831 22.6545 126.067 22.6545ZM120.524 11.7871H122.4V14.3933C123.139 12.5781 124.709 11.5082 126.648 11.5082C129.604 11.5082 131.682 13.8584 131.682 17.8796C131.682 21.9008 129.604 24.251 126.648 24.251C124.846 24.251 123.37 23.3205 122.561 21.6447V28.6352H120.533L120.524 11.7871Z"/>
    <path d="M134.71 20.4197C134.871 22.0486 136.072 22.7699 137.988 22.7699C139.791 22.7699 140.991 22.1183 140.991 20.8849C140.991 19.9773 140.321 19.4423 138.659 18.9302L136.05 18.1621C134.179 17.6031 133.232 16.4634 133.232 14.8105C133.232 12.4603 135.148 11.507 137.665 11.507C140.344 11.507 142.469 12.5997 142.699 15.1134L140.853 15.2336C140.645 13.6985 139.329 13 137.665 13C136.188 12.9531 135.217 13.6011 135.217 14.7443C135.217 15.7217 135.91 16.2807 137.181 16.6534L139.814 17.4203C141.842 18.0022 143 19.0264 143 20.7948C143 23.0524 141.084 24.263 137.943 24.263C134.987 24.263 133.071 23.1221 132.862 20.5159L134.71 20.4197Z"/>
  </g>
  <path d="M15.8889 32C24.6641 32 31.7778 24.8366 31.7778 16C31.7778 7.16344 24.6641 0 15.8889 0C7.1137 0 0 7.16344 0 16C0 24.8366 7.1137 32 15.8889 32Z" fill="white"/>
  <g fill="currentColor">
    <path d="M12.4718 20.4725L22.7541 10.1112C23.0083 9.85483 23.3101 9.65142 23.6423 9.51264C23.9745 9.37386 24.3306 9.30243 24.6903 9.30243C25.0499 9.30243 25.4061 9.37386 25.7383 9.51264C26.0705 9.65142 26.3723 9.85483 26.6265 10.1112C26.8809 10.3673 27.0828 10.6715 27.2205 11.0063C27.3582 11.3411 27.4291 11.6999 27.4291 12.0623C27.4291 12.4247 27.3582 12.7836 27.2205 13.1184C27.0828 13.4531 26.8809 13.7573 26.6265 14.0134L20.2262 20.4725C19.1973 21.5076 17.8028 22.089 16.349 22.089C14.8951 22.089 13.5007 21.5076 12.4718 20.4725Z"/>
    <path d="M19.2932 11.5274L9.01095 21.8887C8.75678 22.1451 8.45496 22.3486 8.12273 22.4873C7.7905 22.6261 7.43439 22.6975 7.07474 22.6975C6.7151 22.6975 6.35899 22.6261 6.02676 22.4873C5.69453 22.3486 5.3927 22.1451 5.13854 21.8887C4.6264 21.3705 4.33887 20.669 4.33887 19.9377C4.33887 19.2063 4.6264 18.5048 5.13854 17.9866L11.5389 11.5274C12.5678 10.4923 13.9622 9.91098 15.4161 9.91098C16.8699 9.91098 18.2644 10.4923 19.2932 11.5274Z"/>
  </g>
</svg>