<?xml version="1.0" encoding="UTF-8" standalone="no"?>
<svg xmlns="http://www.w3.org/2000/svg" width="652" height="643" viewBox="0 0 652 643" fill="none">
    <defs>
        <linearGradient id="Gradient-0" x1="8.95358" y1="30.535" x2="210.477" y2="430.52" gradientUnits="userSpaceOnUse">
            <stop offset="0" stop-color="#ffeb49"/>
            <stop offset="0.45" stop-color="#ff6600"/>
            <stop offset="0.53" stop-color="#fe6009"/>
            <stop offset="0.68" stop-color="#fd5322"/>
            <stop offset="0.86" stop-color="#fc3c4c"/>
            <stop offset="1" stop-color="#fb2872"/>
        </linearGradient>
        <linearGradient id="Gradient-1" x1="64.3854" y1="133.362" x2="84.6908" y2="296.851" gradientUnits="userSpaceOnUse">
            <stop offset="0" stop-color="#ffeb49"/>
            <stop offset="0.09" stop-color="#ffe545" stop-opacity="0.96"/>
            <stop offset="0.24" stop-color="#ffd63d" stop-opacity="0.84"/>
            <stop offset="0.44" stop-color="#ffbd2f" stop-opacity="0.66"/>
            <stop offset="0.67" stop-color="#ff9a1c" stop-opacity="0.4"/>
            <stop offset="0.94" stop-color="#ff6f05" stop-opacity="0.07"/>
            <stop offset="1" stop-color="#ff6600" stop-opacity="0"/>
        </linearGradient>
        <linearGradient id="Gradient-2" x1="410.804" y1="117.149" x2="410.804" y2="638.583" gradientUnits="userSpaceOnUse">
            <stop offset="0" stop-color="#ff6600"/>
            <stop offset="0.01" stop-color="#ff7408"/>
            <stop offset="0.04" stop-color="#ff8a14"/>
            <stop offset="0.07" stop-color="#ff9b1d"/>
            <stop offset="0.11" stop-color="#ffa724"/>
            <stop offset="0.17" stop-color="#ffae27"/>
            <stop offset="0.33" stop-color="#ffb029"/>
            <stop offset="0.46" stop-color="#ff9218"/>
            <stop offset="0.63" stop-color="#ff6600"/>
            <stop offset="0.64" stop-color="#fe5d0f"/>
            <stop offset="0.69" stop-color="#fd4a32"/>
            <stop offset="0.74" stop-color="#fc3b4e"/>
            <stop offset="0.79" stop-color="#fb3062"/>
            <stop offset="0.84" stop-color="#fb2a6e"/>
            <stop offset="0.89" stop-color="#fb2872"/>
        </linearGradient>
        <linearGradient id="Gradient-3" x1="411.556" y1="117.149" x2="411.556" y2="638.583" gradientUnits="userSpaceOnUse">
            <stop offset="0" stop-color="#ffeb49" stop-opacity="0.8"/>
            <stop offset="0.23" stop-color="#ffc836" stop-opacity="0.59"/>
            <stop offset="0.6" stop-color="#ff9319" stop-opacity="0.28"/>
            <stop offset="0.87" stop-color="#ff7207" stop-opacity="0.08"/>
            <stop offset="1" stop-color="#ff6600" stop-opacity="0"/>
        </linearGradient>
        <linearGradient id="Gradient-4" x1="529.753" y1="499.864" x2="211.831" y2="626.543" gradientUnits="userSpaceOnUse">
            <stop offset="0.02" stop-color="#be0449" stop-opacity="0"/>
            <stop offset="0.51" stop-color="#fb2872"/>
            <stop offset="0.67" stop-color="#a31c5e"/>
            <stop offset="0.83" stop-color="#4c104a"/>
            <stop offset="0.94" stop-color="#15093e"/>
            <stop offset="1" stop-color="#00073a"/>
        </linearGradient>
        <linearGradient id="Gradient-5" x1="351.644" y1="530.169" x2="568.601" y2="615.013" gradientUnits="userSpaceOnUse">
            <stop offset="0" stop-color="#be0449" stop-opacity="0"/>
            <stop offset="0.41" stop-color="#fb2872"/>
            <stop offset="1" stop-color="#00073a"/>
        </linearGradient>
        <radialGradient id="Gradient-6" cx="0" cy="0" r="1" fx="0" fy="0" gradientUnits="userSpaceOnUse" gradientTransform="matrix(134.663 0 0 134.663 284.967 539.403)">
            <stop offset="0" stop-color="#ffeb49"/>
            <stop offset="0.05" stop-color="#ffe546" stop-opacity="0.96"/>
            <stop offset="0.14" stop-color="#ffd73e" stop-opacity="0.85"/>
            <stop offset="0.25" stop-color="#ffc031" stop-opacity="0.68"/>
            <stop offset="0.38" stop-color="#ffa01f" stop-opacity="0.44"/>
            <stop offset="0.53" stop-color="#ff7709" stop-opacity="0.13"/>
            <stop offset="0.59" stop-color="#ff6600" stop-opacity="0"/>
        </radialGradient>
        <linearGradient id="Gradient-7" x1="373.253" y1="409.791" x2="382.487" y2="655.547" gradientUnits="userSpaceOnUse">
            <stop offset="0.01" stop-color="#be0449" stop-opacity="0"/>
            <stop offset="0.06" stop-color="#bf054a" stop-opacity="0.04"/>
            <stop offset="0.14" stop-color="#c2084c" stop-opacity="0.16"/>
            <stop offset="0.23" stop-color="#c70d51" stop-opacity="0.36"/>
            <stop offset="0.35" stop-color="#ce1457" stop-opacity="0.63"/>
            <stop offset="0.48" stop-color="#d71e5f" stop-opacity="0.97"/>
            <stop offset="0.49" stop-color="#d81f60"/>
            <stop offset="0.56" stop-color="#d31e5f"/>
            <stop offset="0.63" stop-color="#c71d5d"/>
            <stop offset="0.7" stop-color="#b31a59"/>
            <stop offset="0.77" stop-color="#971754"/>
            <stop offset="0.84" stop-color="#73134e"/>
            <stop offset="0.91" stop-color="#460e46"/>
            <stop offset="0.98" stop-color="#13093d"/>
            <stop offset="1" stop-color="#00073a"/>
        </linearGradient>
        <linearGradient id="Gradient-8" x1="433.66" y1="364.742" x2="423.457" y2="657.384" gradientUnits="userSpaceOnUse">
            <stop offset="0" stop-color="#d81f60" stop-opacity="0"/>
            <stop offset="0.11" stop-color="#d81f60" stop-opacity="0.01"/>
            <stop offset="0.19" stop-color="#d81f60" stop-opacity="0.06"/>
            <stop offset="0.27" stop-color="#d81f60" stop-opacity="0.14"/>
            <stop offset="0.35" stop-color="#d81f60" stop-opacity="0.25"/>
            <stop offset="0.42" stop-color="#d81f60" stop-opacity="0.39"/>
            <stop offset="0.49" stop-color="#d81f60" stop-opacity="0.57"/>
            <stop offset="0.55" stop-color="#d81f60" stop-opacity="0.77"/>
            <stop offset="0.62" stop-color="#d81f60"/>
            <stop offset="0.66" stop-color="#d21e5f"/>
            <stop offset="0.71" stop-color="#c21c5c"/>
            <stop offset="0.77" stop-color="#a81957"/>
            <stop offset="0.83" stop-color="#841551"/>
            <stop offset="0.9" stop-color="#551049"/>
            <stop offset="0.97" stop-color="#1d0a3f"/>
            <stop offset="1" stop-color="#00073a"/>
        </linearGradient>
        <linearGradient id="Gradient-9" x1="400.676" y1="337.345" x2="410.65" y2="556.827" gradientUnits="userSpaceOnUse">
            <stop offset="0" stop-color="#ffeb49"/>
            <stop offset="0.09" stop-color="#ffe847" stop-opacity="0.96"/>
            <stop offset="0.24" stop-color="#ffe143" stop-opacity="0.84"/>
            <stop offset="0.44" stop-color="#ffd63d" stop-opacity="0.66"/>
            <stop offset="0.67" stop-color="#ffc735" stop-opacity="0.4"/>
            <stop offset="0.94" stop-color="#ffb42b" stop-opacity="0.07"/>
            <stop offset="1" stop-color="#ffb029" stop-opacity="0"/>
        </linearGradient>
        <linearGradient id="Gradient-10" x1="469.073" y1="12.074" x2="372.702" y2="301.51" gradientUnits="userSpaceOnUse">
            <stop offset="0.17" stop-color="#ff6600"/>
            <stop offset="0.54" stop-color="#ff9c00"/>
            <stop offset="0.9" stop-color="#ff6700"/>
            <stop offset="0.91" stop-color="#ff6600"/>
        </linearGradient>
        <linearGradient id="Gradient-11" x1="493.89" y1="118.18" x2="544.898" y2="38.5554" gradientUnits="userSpaceOnUse">
            <stop offset="0" stop-color="#ff6600" stop-opacity="0"/>
            <stop offset="0.11" stop-color="#ff6600" stop-opacity="0.3"/>
            <stop offset="0.23" stop-color="#ff6600" stop-opacity="0.6"/>
            <stop offset="0.32" stop-color="#ff6600" stop-opacity="0.82"/>
            <stop offset="0.4" stop-color="#ff6600" stop-opacity="0.95"/>
            <stop offset="0.43" stop-color="#ff6600"/>
            <stop offset="0.72" stop-color="#fd4737"/>
            <stop offset="1" stop-color="#fb2872"/>
        </linearGradient>
        <linearGradient id="Gradient-12" x1="383.966" y1="83.0861" x2="395.804" y2="-10.9185" gradientUnits="userSpaceOnUse">
            <stop offset="0" stop-color="#ff6600" stop-opacity="0"/>
            <stop offset="0.03" stop-color="#ff6600" stop-opacity="0.17"/>
            <stop offset="0.07" stop-color="#ff6600" stop-opacity="0.36"/>
            <stop offset="0.11" stop-color="#ff6600" stop-opacity="0.53"/>
            <stop offset="0.15" stop-color="#ff6600" stop-opacity="0.68"/>
            <stop offset="0.2" stop-color="#ff6600" stop-opacity="0.8"/>
            <stop offset="0.24" stop-color="#ff6600" stop-opacity="0.89"/>
            <stop offset="0.29" stop-color="#ff6600" stop-opacity="0.95"/>
            <stop offset="0.35" stop-color="#ff6600" stop-opacity="0.99"/>
            <stop offset="0.42" stop-color="#ff6600"/>
            <stop offset="0.7" stop-color="#fd4737"/>
            <stop offset="0.97" stop-color="#fb2872"/>
        </linearGradient>
        <linearGradient id="Gradient-13" x1="411.9" y1="121.466" x2="408.463" y2="642.889" gradientUnits="userSpaceOnUse">
            <stop offset="0" stop-color="#ff6600"/>
            <stop offset="0.01" stop-color="#ff7408"/>
            <stop offset="0.04" stop-color="#ff8a14"/>
            <stop offset="0.07" stop-color="#ff9b1d"/>
            <stop offset="0.11" stop-color="#ffa724"/>
            <stop offset="0.17" stop-color="#ffae27"/>
            <stop offset="0.33" stop-color="#ffb029"/>
            <stop offset="0.46" stop-color="#ff9218"/>
            <stop offset="0.63" stop-color="#ff6600"/>
            <stop offset="0.64" stop-color="#fe5d0f"/>
            <stop offset="0.69" stop-color="#fd4a32"/>
            <stop offset="0.74" stop-color="#fc3b4e"/>
            <stop offset="0.79" stop-color="#fb3062"/>
            <stop offset="0.84" stop-color="#fb2a6e"/>
            <stop offset="0.89" stop-color="#fb2872"/>
        </linearGradient>
        <linearGradient id="Gradient-14" x1="411.9" y1="121.466" x2="408.463" y2="642.889" gradientUnits="userSpaceOnUse">
            <stop offset="0" stop-color="#ffeb49" stop-opacity="0.8"/>
            <stop offset="0.23" stop-color="#ffc836" stop-opacity="0.59"/>
            <stop offset="0.6" stop-color="#ff9319" stop-opacity="0.28"/>
            <stop offset="0.87" stop-color="#ff7207" stop-opacity="0.08"/>
            <stop offset="1" stop-color="#ff6600" stop-opacity="0"/>
        </linearGradient>
        <linearGradient id="Gradient-15" x1="56.9996" y1="203.768" x2="255.882" y2="605.073" gradientUnits="userSpaceOnUse">
            <stop offset="0" stop-color="#ffeb49"/>
            <stop offset="0.45" stop-color="#ff6600"/>
            <stop offset="0.53" stop-color="#fe6009"/>
            <stop offset="0.68" stop-color="#fd5322"/>
            <stop offset="0.86" stop-color="#fc3c4c"/>
            <stop offset="1" stop-color="#fb2872"/>
        </linearGradient>
        <linearGradient id="Gradient-16" x1="441.053" y1="137.397" x2="431.028" y2="183.707" gradientUnits="userSpaceOnUse">
            <stop offset="0.16" stop-color="#a030b9"/>
            <stop offset="0.88" stop-color="#00073a"/>
        </linearGradient>
        <linearGradient id="Gradient-17" x1="371.734" y1="111.712" x2="361.811" y2="150.319" gradientUnits="userSpaceOnUse">
            <stop offset="0.16" stop-color="#a030b9"/>
            <stop offset="0.88" stop-color="#00073a"/>
        </linearGradient>
        <mask id="mask0_641_47765" style="mask-type: alpha;">
            <path id="Vector-235" d="M387,231.5C337,230.7,292.167,206.833,276,195L158,126L0,288L39.5,532L332,643L560.5,611.5C545.667,502.667,513.5,280.6,503.5,263C491,241,449.5,232.5,387,231.5Z" fill="#D9D9D9" transform="translate(280.25,384.5) translate(-280.25,-384.5)"/>
        </mask>
        <mask id="mask1_641_47765" style="mask-type: alpha;">
            <path id="Vector-234" d="M230.821,94.1598C286.478,85.7264,319.548,60.0772,329.125,48.3067L359.333,17.0052L487.435,1.84921C531.085,29.8042,623.696,99.2495,644.94,153.391C671.494,221.067,592.213,263.546,578.164,270.953C564.114,278.361,524.658,271.6,488.6,280.363C452.541,289.125,376.523,291.624,347.076,283.43C317.63,275.236,308.301,249.174,304.887,236.151C301.473,223.128,291.052,211.059,275.161,194.454C259.27,177.849,161.25,104.701,230.821,94.1598Z" fill="#D9D9D9" transform="translate(428.245,145.137) translate(-428.245,-145.137)"/>
        </mask>
    </defs>
    <style>
@media (prefers-reduced-motion: reduce) { * { animation: none !important; } }
@keyframes tail_t { 0% { transform: translate(329px,509px) rotate(0deg) translate(-282.193663px,-346.790685px); } 5% { transform: translate(329px,509px) rotate(0deg) translate(-282.193663px,-346.790685px); animation-timing-function: cubic-bezier(0.42,0,0.58,1); } 37.5% { transform: translate(329px,509px) rotate(-5deg) translate(-282.193663px,-346.790685px); animation-timing-function: cubic-bezier(0.42,0,0.58,1); } 100% { transform: translate(329px,509px) rotate(0deg) translate(-282.193663px,-346.790685px); } }
@keyframes head_t { 0% { transform: translate(392.5px,251px) rotate(0deg) translate(-392.5px,-251px); } 12.5% { transform: translate(392.5px,251px) rotate(0deg) translate(-392.5px,-251px); animation-timing-function: cubic-bezier(0.42,0,0.58,1); } 50% { transform: translate(392.5px,251px) rotate(3deg) translate(-392.5px,-251px); animation-timing-function: cubic-bezier(0.42,0,0.58,1); } 87.5% { transform: translate(392.5px,251px) rotate(0deg) translate(-392.5px,-251px); } 100% { transform: translate(392.5px,251px) rotate(0deg) translate(-392.5px,-251px); } }
@keyframes a0_d { 0% { d: path('M-5.12949,-1.67469C-5.12949,-1.67469,14.919,9,14.919,9C14.919,9,17.9245,7.41975,5.563,1.37522C-8.47091,-5.48707,-5.12949,-1.67469,-5.12949,-1.67469Z'); } 62.5% { d: path('M-5.12949,-1.67469C-5.12949,-1.67469,14.919,9,14.919,9C14.919,9,17.9245,7.41975,5.563,1.37522C-8.47091,-5.48707,-5.12949,-1.67469,-5.12949,-1.67469Z'); } 65% { d: path('M-28.7775,27.2238C-28.7775,27.2238,-7.59692,43.1384,-7.59692,43.1384C-7.59692,43.1384,25.0539,13.8298,6.49645,2.14989C-8.48582,-7.27981,-28.7775,27.2238,-28.7775,27.2238Z'); } 67.5% { d: path('M-8.35778,-1.22815C-8.35778,-1.22815,11.9153,7,11.9153,7C11.9153,7,14.9546,5.78193,2.45459,1.12275C-11.7366,-4.16677,-8.35778,-1.22815,-8.35778,-1.22815Z'); } 100% { d: path('M-8.35778,-1.22815C-8.35778,-1.22815,11.9153,7,11.9153,7C11.9153,7,14.9546,5.78193,2.45459,1.12275C-11.7366,-4.16677,-8.35778,-1.22815,-8.35778,-1.22815Z'); } }
@keyframes a1_d { 0% { d: path('M-4.91979,-2.51052C-4.91979,-2.51052,16.9762,9.50741,16.9762,9.50741C16.9762,9.50741,20.2586,7.72831,6.75798,0.923176C-8.5691,-6.80262,-4.91979,-2.51052,-4.91979,-2.51052Z'); } 62.5% { d: path('M-4.91979,-2.51052C-4.91979,-2.51052,16.9762,9.50741,16.9762,9.50741C16.9762,9.50741,20.2586,7.72831,6.75798,0.923176C-8.5691,-6.80262,-4.91979,-2.51052,-4.91979,-2.51052Z'); } 65% { d: path('M-28.7775,27.2238C-28.7775,27.2238,-7.59692,43.1384,-7.59692,43.1384C-7.59692,43.1384,25.0539,13.8298,6.49645,2.14989C-8.48582,-7.27981,-28.7775,27.2238,-28.7775,27.2238Z'); } 67.5% { d: path('M-5.76672,-3.38908C-5.76672,-3.38908,15.7937,9.57334,15.7937,9.57334C15.7937,9.57334,19.0259,7.65442,5.73222,0.314471C-9.36015,-8.01849,-5.76672,-3.38908,-5.76672,-3.38908Z'); } 100% { d: path('M-5.76672,-3.38908C-5.76672,-3.38908,15.7937,9.57334,15.7937,9.57334C15.7937,9.57334,19.0259,7.65442,5.73222,0.314471C-9.36015,-8.01849,-5.76672,-3.38908,-5.76672,-3.38908Z'); } }
    </style>
    <g id="tail" transform="translate(329,509) translate(-282.194,-346.791)" style="animation: 4s linear infinite both tail_t;">
        <path d="M297.5,340.5C290.153,385.243,287.602,387.975,287.5,388C287.5,388,297.133,399.827,288,411C284.15,415.71,302.5,416.724,249.241,416.643C182.381,416.541,145.495,414.883,100.037,387.052C53.3807,358.482,23.0757,316.978,8.4844,269.684C-1.31115,237.925,0.0663794,217.084,0.0663794,217.084C0.0663794,217.084,1.74996,219.89,6.01,224.303C9.3262,227.747,11.8516,228.971,11.8516,228.971C11.8516,228.971,11.2139,220.222,11.1374,216.803C9.58132,143.745,46.034,95.1499,83.8897,61.146C116.618,31.7591,97.9198,0,97.9198,0C97.9198,0,164.907,25.8161,160.851,86.247C155.622,164.484,158.734,245.246,238.221,277.005C246.996,280.5,289.475,291.479,294.5,292.5C293.786,294.515,300.163,310.316,299.5,312C299.219,312.714,299.882,316.337,299.5,317C292.995,328.531,300.739,320.705,297.5,340.5Z" fill="url(#Gradient-0)" transform="translate(149.811,208.324) translate(-149.811,-208.324)"/>
        <path d="M73.6963,181.217C71.2474,159.79,72.0127,134.867,72.0127,134.867C72.0127,134.867,64.2579,153.769,59.7683,177.901C56.4265,195.834,54.6919,215.043,54.9215,219.354C53.8246,217.798,50.6615,212.849,47.983,204.839C44.6158,194.737,42.2434,186.396,42.2434,186.396C42.371,186.319,33.9529,220.553,49.386,283.433C68.9771,332.691,102.241,350.42,117.598,332.079C132.954,313.738,113.491,296.264,101.297,279.02C86.1703,257.617,77.8033,216.981,73.6963,181.243L73.6963,181.217Z" fill="url(#Gradient-1)" transform="translate(81.6599,237.009) translate(-81.6599,-237.009)"/>
    </g>
    <g id="kit-head-tilt" transform="translate(301.14,314.322) translate(-301.14,-314.322)">
        <g id="body" transform="translate(301.492,367.518) translate(-301.492,-367.518)">
            <g mask="url(#mask0_641_47765)" transform="translate(301.492,367.518) translate(-301.492,-367.518)">
                <g id="Group-1597882547" transform="translate(301.492,367.518) translate(-301.492,-367.518)">
                    <path id="Vector" d="M549.753,206.023C510.749,191.84,492.356,163.679,452,171C447.944,171.74,433.964,155.587,429.5,155C438.53,164.617,416.275,176.969,385,171C374.337,168.959,382.387,139.005,375.5,135C352.414,121.556,324.022,185.845,332.414,174.978C332.771,174.493,333.179,174.009,333.587,173.499C320.884,169.851,311.803,133.449,282.314,126C282.569,126.255,282.62,126.485,282.314,126.766C279.406,129.521,267.11,124.189,264.075,132.148C261.575,138.653,274.789,139.852,273.819,142.888C272.493,147.02,263.003,145.974,261.753,150.132C259.636,157.096,264.151,156.662,275.681,167.096C281.498,172.351,289.074,180.361,298.487,193.472C302.327,198.814,307.806,204.83,310,213C316.376,236.742,314.03,270.548,312.644,294.974C311.726,311.402,303.359,347.956,302.39,367.216C301.395,387.062,303.461,404.918,303.971,420.632C304.099,428.361,303.971,439.101,302.16,446.728C297.67,469.355,284.304,472.977,279.431,502.721C272.11,547.464,320.807,564.275,320.272,564.428C320.17,564.453,319.991,564.504,319.812,564.53C322.312,564.836,324.736,565.116,327.083,565.397C337.72,566.698,346.954,567.922,354.913,569.045C357.974,569.478,361.239,569.887,363.969,570.295C363.153,575.193,361.852,580.856,360.602,584.529C358.842,589.656,357.03,598.993,359.581,603.278C364.683,611.9,396.34,610.599,397.82,600.421C398.534,595.447,399.019,589.376,399.299,582.488C399.299,582.488,399.299,582.539,399.299,582.565C402.896,582.412,403.126,582.463,405.472,582.565C405.498,583.585,405.881,593.049,406.952,600.396C408.432,610.574,440.089,611.875,445.19,603.253C447.716,598.993,445.93,589.656,444.17,584.503C443.354,582.106,442.486,578.687,441.721,575.193C445.701,574.376,491.668,564.989,495.52,564.377C495.571,564.198,495.826,564.02,496.285,563.841C517.356,556.571,541.258,524.302,530.213,494.175C523.886,476.931,512.178,468.742,505.622,457.212C492.025,433.361,502.408,427.775,496.413,364.104C493.811,336.375,486.541,303.698,483.582,286.785C477.715,253.215,485.316,253.419,505.086,247.909C530.621,240.792,539.319,245.282,542.763,237.297C544.396,233.522,538.299,230.869,539.651,227.017C541.743,220.946,558.809,225.997,560.058,219.696C561.666,211.609,551.666,209.033,549.676,205.997L549.753,206.023Z" fill="url(#Gradient-2)" transform="translate(410.74,367.493) translate(-410.74,-367.493)"/>
                    <path id="Vector_2" opacity="0.6" d="M550.505,206.023C511.501,191.84,477.37,193.243,437.014,200.564C432.958,201.304,429.642,201.967,425.178,201.38C434.208,210.997,422.027,176.006,390.752,170.037C380.089,167.996,372.639,154.137,365.752,150.132C342.666,136.688,324.774,185.845,333.166,174.978C333.523,174.493,333.931,174.009,334.339,173.499C321.636,169.851,312.555,133.449,283.066,126C283.321,126.255,283.372,126.485,283.066,126.766C280.158,129.521,267.862,124.189,264.827,132.148C262.327,138.653,275.541,139.852,274.571,142.888C273.245,147.02,263.755,145.974,262.505,150.132C260.388,157.096,264.903,156.662,276.433,167.096C282.25,172.351,291.587,178.889,301,192C315.999,212.867,315.259,262.143,313.396,294.974C312.478,311.402,304.111,347.956,303.142,367.216C302.147,387.062,304.213,404.918,304.723,420.632C304.851,428.361,304.723,439.101,302.912,446.728C298.422,469.355,285.056,472.977,280.183,502.721C272.862,547.464,321.559,564.275,321.024,564.428C320.922,564.453,320.743,564.504,320.564,564.53C323.064,564.836,325.488,565.116,327.835,565.397C338.472,566.698,347.706,567.922,355.665,569.045C358.726,569.478,361.991,569.887,364.721,570.295C363.905,575.193,362.604,580.856,361.354,584.529C359.594,589.656,357.782,598.993,360.333,603.278C365.435,611.9,397.092,610.599,398.572,600.421C399.286,595.447,399.771,589.376,400.051,582.488C400.051,582.488,400.051,582.539,400.051,582.565C403.648,582.412,403.878,582.463,406.224,582.565C406.25,583.585,406.633,593.049,407.704,600.396C409.184,610.574,440.841,611.875,445.942,603.253C448.468,598.993,446.682,589.656,444.922,584.503C444.106,582.106,443.238,578.687,442.473,575.193C446.453,574.376,492.42,564.989,496.272,564.377C496.323,564.198,496.578,564.02,497.037,563.841C518.108,556.571,542.01,524.302,530.965,494.175C524.638,476.931,512.93,468.742,506.374,457.212C492.777,433.361,503.16,427.775,497.165,364.104C494.563,336.375,487.293,303.698,484.334,286.785C478.467,253.215,486.068,253.419,505.838,247.909C531.373,240.792,540.071,245.282,543.515,237.297C545.148,233.522,539.051,230.869,540.403,227.017C542.495,220.946,559.561,225.997,560.81,219.696C562.418,211.609,552.418,209.033,550.428,205.997L550.505,206.023Z" fill="url(#Gradient-3)" transform="translate(411.492,367.493) translate(-411.492,-367.493)"/>
                    <path id="Vector_5" d="M355.397,569.045C347.464,567.923,338.229,566.698,327.566,565.397C325.219,565.117,322.796,564.811,320.296,564.53C317.261,565.168,304.71,567.183,295.578,578.356C292.338,582.31,291.267,585.397,291.241,587.948C291.241,589.657,291.675,591.111,292.338,592.412C295.348,598.253,309.965,597.692,318.409,595.447C323.204,594.172,329.378,592.743,336.265,591.366C343.765,589.861,352.055,588.432,360.218,587.284C360.473,586.366,360.754,585.448,361.06,584.504C362.259,580.984,363.585,575.346,364.427,570.346C361.621,569.938,358.586,569.479,355.371,569.02L355.397,569.045Z" fill="url(#Gradient-4)" transform="translate(327.834,580.782) translate(-327.834,-580.782)"/>
                    <path id="Vector_6" d="M516.97,579.606C515.057,577.26,511.74,574.607,506.383,571.494C499.573,567.541,493.501,565.806,494.318,564.581C493.221,564.76,492.149,564.939,491.027,565.168C467.941,569.836,452.431,572.54,441.973,574.045C442.763,577.948,443.733,581.826,444.651,584.479C444.957,585.372,445.238,586.29,445.467,587.183C445.569,587.565,445.646,587.922,445.748,588.305C465.9,591.366,474.778,595.193,490.95,596.009C509.087,596.927,514.725,595.116,517.786,589.683C519.444,586.724,520.261,583.611,516.97,579.581L516.97,579.606Z" fill="url(#Gradient-5)" transform="translate(480.603,580.409) translate(-480.603,-580.409)"/>
                    <path id="Vector_7" opacity="0.38" d="M363.739,507.619C356.01,478.283,332.235,455.401,302.288,448.794C301.854,450.656,301.318,452.468,300.706,454.228C300.706,454.279,300.655,454.355,300.655,454.406C299.762,457.008,298.716,459.534,297.39,461.957C290.757,473.972,283.258,482.364,279.941,502.695C272.62,547.439,321.317,564.249,320.782,564.402C320.68,564.428,320.501,564.479,320.323,564.504C322.822,564.81,325.246,565.091,327.593,565.372C338.23,566.673,347.464,567.897,355.423,569.019C360.551,560.219,364.096,550.372,365.601,539.888C365.321,530.041,364.683,519.047,363.79,507.593L363.739,507.619Z" fill="url(#Gradient-6)" transform="translate(322.396,508.906) translate(-322.396,-508.906)"/>
                    <path id="Vector_8" d="M396.16,477.849C394.579,479.762,393.635,492.16,391.594,493.206C389.961,494.022,389.145,483.461,387.462,473.921C387.002,471.344,385.268,462.977,384.809,460.529C382.666,448.59,382.666,449.534,380.88,439.789C380.523,447.57,379.809,449.636,378.38,461.574C377.691,467.365,376.697,474.329,375.88,478.181C375.166,481.548,374.069,469.023,373.38,465.732C370.064,449.764,367.768,445.504,363.279,429.611C360.753,420.632,352.82,412.342,352.055,406.602C355.677,431.116,360.881,471.702,363.687,507.644C364.58,519.098,365.243,530.092,365.498,539.939C365.753,549.403,365.677,557.821,365.141,564.606C365.013,566.264,364.733,568.279,364.376,570.397C363.534,575.397,362.207,581.034,361.008,584.554C360.702,585.473,360.422,586.417,360.167,587.335C358.304,594.146,358.304,600.472,359.988,603.329C365.09,611.951,396.747,610.65,398.226,600.472C398.941,595.498,399.425,589.401,399.706,582.488C400.777,556.469,398.966,518.256,396.084,477.9L396.16,477.849Z" fill="url(#Gradient-7)" transform="translate(376.036,507.819) translate(-376.036,-507.819)"/>
                    <path id="Vector_9" d="M445.471,587.208C445.216,586.315,444.961,585.422,444.655,584.504C443.736,581.826,442.767,577.948,441.976,574.071C441.287,570.627,440.726,567.183,440.522,564.556C437.665,528.639,447.741,446.422,453.634,406.577C452.869,412.317,444.935,420.607,442.41,429.586C437.946,445.479,435.624,449.739,432.308,465.707C431.619,468.998,430.523,481.523,429.808,478.156C428.992,474.304,427.997,467.366,427.308,461.549C425.88,449.611,425.166,447.545,424.809,439.765C423.023,449.509,423.023,448.591,420.88,460.504C420.446,462.978,418.686,471.319,418.227,473.896C416.543,483.436,415.753,493.997,414.095,493.181C412.028,492.135,411.11,479.738,409.528,477.824C406.646,518.18,404.835,556.393,405.906,582.387C406.187,589.3,406.671,595.396,407.386,600.371C408.865,610.549,440.522,611.85,445.624,603.228C447.206,600.549,447.282,594.682,445.701,588.305C445.598,587.922,445.522,587.565,445.42,587.182L445.471,587.208Z" fill="url(#Gradient-8)" transform="translate(429.614,507.756) translate(-429.614,-507.756)"/>
                    <path id="Vector_10" opacity="0.6" d="M399.707,287.934C399.707,287.934,366.213,312.703,375.218,370.533C382.437,416.832,388.381,427.546,392.921,456.932C397.488,486.319,402.36,520.246,402.36,520.246C402.36,520.246,406.467,487.441,412.002,456.167C415.956,433.821,423.89,403.746,428.124,367.599C434.961,309.387,399.681,287.908,399.681,287.908L399.707,287.934Z" fill="url(#Gradient-9)" transform="translate(401.342,404.077) translate(-401.342,-404.077)"/>
                </g>
            </g>
        </g>
        <g id="head" transform="translate(392.5,251) translate(-392.5,-251)" style="animation: 4s linear infinite both head_t;">
            <g mask="url(#mask1_641_47765)" transform="translate(300.978,314.322) translate(-300.978,-314.322)">
                <g id="Group-1597882547_2" transform="translate(300.978,314.322) translate(-300.978,-314.322)">
                    <path id="Vector_11" d="M557.095,203.544C556.44,194.585,536.532,192.21,527.971,178.99C525.295,174.84,524.625,168.05,524.649,160.627C524.692,154.147,525.273,147.213,525.542,141.168C526.197,126.938,525.663,119.129,525.948,95.0496C526.202,75.9445,523.969,54.7566,515.202,49.7244C507.07,45.0535,493.848,53.9458,475.037,71.0154C464.54,80.5379,457.649,88.7832,450.467,94.6541C450.032,95.0084,449.596,95.3881,449.159,95.7169C448.724,96.0456,438.054,93.1947,431.787,91.9035C430.437,91.614,429.631,90.0525,428.961,87.242C427.471,80.9823,426.763,68.4779,422.522,50.1849C417.238,27.4209,409.939,16.276,399.282,15.2874C390.309,14.4629,374.574,36.9864,362.434,55.8602C352.382,71.4824,351.631,73.0846,347.717,78.6965C344.858,82.7847,341.587,87.661,338.034,92.5099C330.698,102.538,322.291,112.533,314.234,115.669C299.068,121.564,287.438,113.401,281.755,120.353C276.303,127.026,282.162,128.289,283.378,129.445C315.721,137.846,323.216,181.059,338.214,177.407C351.015,174.304,359.344,187.93,385.621,191.393C411.772,194.831,414.664,208.957,434.33,205.439C475.679,198.033,510.23,196.373,550.233,211.228C548.213,208.077,557.491,209.312,557.07,203.544L557.095,203.544Z" fill="url(#Gradient-10)" transform="translate(418.283,113.247) translate(-418.283,-113.247)"/>
                    <path id="Vector_12" d="M491.379,122.243C504.846,138.072,518.745,154.081,524.671,160.626C524.714,154.147,525.296,147.211,525.565,141.168C526.22,126.937,525.685,119.128,525.972,95.0487C526.224,75.9435,523.992,54.7556,515.224,49.7234C507.092,45.0526,493.87,53.9449,475.059,71.0145C464.563,80.537,457.671,88.7823,450.49,94.6532C458.99,97.7704,477.457,105.928,491.379,122.269L491.379,122.243Z" fill="url(#Gradient-11)" transform="translate(488.24,104.557) translate(-488.24,-104.557)"/>
                    <path id="Vector_13" d="M428.986,87.2422C427.496,80.9825,426.788,68.478,422.546,50.1851C417.263,27.4211,409.964,16.2761,399.307,15.2875C390.334,14.4631,374.599,36.9865,362.459,55.8603C352.407,71.4826,351.656,73.0848,347.742,78.6966C344.883,82.7849,341.612,87.6612,338.059,92.5101C348.351,90.8688,366.764,87.7249,384.77,84.4763C402.52,81.3026,419.004,84.3959,428.986,87.2167L428.986,87.2422Z" fill="url(#Gradient-12)" transform="translate(383.522,53.8878) translate(-383.522,-53.8878)"/>
                    <path id="Vector_14" d="M550.261,211.254C511.351,196.814,477.211,197.992,436.808,205.047C432.747,205.76,429.427,206.401,424.967,205.785C433.933,215.461,407.496,240.159,376.261,233.984C365.612,231.873,357.011,228.551,350.151,224.501C327.154,210.905,324.668,189.588,333.131,178.777C333.491,178.294,333.902,177.813,334.314,177.306C321.635,173.574,312.794,137.113,283.355,129.47C283.608,129.726,283.658,129.957,283.35,130.236C280.424,132.971,268.163,127.559,265.076,135.497C262.533,141.986,275.739,143.272,274.749,146.301C273.396,150.425,263.913,149.316,262.635,153.466C260.472,160.416,264.99,160.011,276.451,170.521C282.233,175.814,289.756,183.874,299.083,197.047C313.944,218.012,316.441,265.336,314.361,298.154C313.335,314.576,302.936,351.56,301.841,370.813C300.715,390.652,302.663,408.521,303.069,424.238C303.146,431.968,302.948,442.707,301.086,450.322C296.447,472.919,283.058,476.452,277.989,506.164C270.373,550.857,318.958,567.989,318.422,568.138C318.32,568.163,318.141,568.213,317.962,568.237C320.459,568.56,322.882,568.856,325.227,569.152C335.855,570.523,345.081,571.808,353.032,572.984C356.09,573.437,359.352,573.867,362.08,574.293C361.231,579.186,359.893,584.84,358.619,588.505C356.825,593.62,354.952,602.945,357.474,607.247C362.519,615.902,394.184,614.81,395.731,604.642C396.478,599.673,397.003,593.605,397.328,586.719C397.328,586.719,397.328,586.77,397.328,586.796C400.926,586.667,401.156,586.719,403.501,586.837C403.52,587.857,403.841,597.323,404.863,604.677C406.276,614.865,437.924,616.374,443.082,607.786C445.636,603.543,443.911,594.194,442.185,589.03C441.385,586.627,440.54,583.203,439.798,579.704C443.783,578.913,489.811,569.829,493.667,569.243C493.719,569.064,493.975,568.888,494.435,568.712C515.554,561.581,539.668,529.47,528.822,499.271C522.609,481.985,510.955,473.719,504.475,462.146C491.035,438.206,501.455,432.689,495.88,368.98C493.461,341.234,486.406,308.51,483.559,291.578C477.913,257.97,485.513,258.224,505.318,252.844C530.9,245.896,539.568,250.443,543.065,242.481C544.722,238.717,538.643,236.024,540.02,232.181C542.152,226.124,559.185,231.287,560.475,224.994C562.137,216.918,552.154,214.276,550.184,211.227L550.261,211.254Z" fill="url(#Gradient-13)" transform="translate(411.386,371.424) translate(-411.386,-371.424)"/>
                    <path id="Vector_15" opacity="0.6" d="M550.261,211.254C511.351,196.814,477.211,197.992,436.808,205.047C432.747,205.76,429.427,206.401,424.967,205.785C433.933,215.461,407.496,240.159,376.261,233.984C365.612,231.873,357.011,228.551,350.151,224.501C327.154,210.905,324.668,189.588,333.131,178.777C333.491,178.294,333.902,177.813,334.314,177.306C321.635,173.574,312.794,137.113,283.355,129.47C283.608,129.726,283.658,129.957,283.35,130.236C280.424,132.971,268.163,127.559,265.076,135.497C262.533,141.986,275.739,143.272,274.749,146.301C273.396,150.425,263.913,149.316,262.635,153.466C260.472,160.416,264.99,160.011,276.451,170.521C282.233,175.814,289.756,183.874,299.083,197.047C313.944,218.012,316.493,266.335,314.413,299.153C313.387,315.575,302.936,351.56,301.841,370.813C300.715,390.652,302.663,408.521,303.069,424.238C303.146,431.968,302.948,442.707,301.086,450.322C296.447,472.919,283.058,476.452,277.989,506.164C270.373,550.857,318.958,567.989,318.422,568.138C318.32,568.163,318.141,568.213,317.962,568.237C320.459,568.56,322.882,568.856,325.227,569.152C335.855,570.523,345.081,571.808,353.032,572.984C356.09,573.437,359.352,573.867,362.08,574.293C361.231,579.186,359.893,584.84,358.619,588.505C356.825,593.62,354.952,602.945,357.474,607.247C362.519,615.902,394.184,614.81,395.731,604.642C396.478,599.673,397.003,593.605,397.328,586.719C397.328,586.719,397.328,586.77,397.328,586.796C400.926,586.667,401.156,586.719,403.501,586.837C403.52,587.857,403.841,597.323,404.863,604.677C406.276,614.865,437.924,616.374,443.082,607.786C445.636,603.543,443.911,594.194,442.185,589.03C441.385,586.627,440.54,583.203,439.798,579.704C443.783,578.913,489.811,569.829,493.667,569.243C493.719,569.064,493.975,568.888,494.435,568.712C515.554,561.581,539.668,529.47,528.822,499.271C522.609,481.985,510.955,473.719,504.475,462.146C491.035,438.206,501.455,432.689,495.88,368.98C493.461,341.234,486.406,308.51,483.559,291.578C477.913,257.97,485.513,258.224,505.318,252.844C530.9,245.896,539.568,250.443,543.065,242.481C544.722,238.717,538.643,236.024,540.02,232.181C542.152,226.124,559.185,231.287,560.475,224.994C562.137,216.918,552.154,214.276,550.184,211.227L550.261,211.254Z" fill="url(#Gradient-14)" transform="translate(411.386,371.424) translate(-411.386,-371.424)"/>
                    <path id="Vector_16" d="M318.445,568.215C318.65,568.166,318.803,568.141,318.905,568.117C319.442,567.967,270.831,550.835,278.473,506.142C281.842,486.368,289.092,477.947,295.673,466.459C296.059,465.799,296.396,465.087,296.681,464.375C297.356,462.695,298.343,459.947,299.07,457.936C294.052,456.882,287.889,455.261,279.138,451.708C199.862,419.426,197.282,338.645,203.027,260.444C207.481,200.041,140.665,173.784,140.665,173.784C140.665,173.784,159.154,205.666,126.232,234.836C88.1534,268.59,51.3812,316.944,52.4557,390.01C52.5096,393.43,53.0897,402.183,53.0897,402.183C53.0897,402.183,50.5724,400.942,47.279,397.476C43.0481,393.035,41.383,390.218,41.383,390.218C41.383,390.218,39.8682,411.05,49.4542,442.873C63.7334,490.262,93.7642,531.965,140.231,560.842C185.505,588.972,222.379,590.873,289.237,591.415C289.254,588.864,290.396,585.785,293.636,581.852C302.842,570.74,315.38,568.807,318.446,568.189L318.445,568.215Z" fill="url(#Gradient-15)" transform="translate(180.103,382.599) translate(-180.103,-382.599)"/>
                    <path id="Vector_17" d="M367.705,162.067C386.895,164.769,400.373,194.526,421.691,203.544C438.709,210.748,410.323,240.713,376.287,233.984C330.454,224.933,321.863,193.192,333.182,178.778C339.253,171.037,351.597,159.793,367.73,162.067L367.705,162.067Z" fill="#FFC635" transform="translate(377.735,198.365) translate(-377.735,-198.365)"/>
                    <path id="Vector_18" d="M366.626,166.88C359.65,164.641,354.92,166.395,352.94,168.831C350.497,171.825,351.208,179.917,359.787,182.678C367.933,185.307,374.727,180.123,374.856,175.991C374.952,173.057,372.786,168.86,366.626,166.88Z" fill="#00073A" transform="translate(363.288,174.62) translate(-363.288,-174.62)"/>
                    <path id="Vector_19" d="M440.797,149.206C449.174,151.532,452.291,158.517,445.431,173.854C440.045,185.91,434.818,185.365,426.9,183.094C422.775,181.893,417.613,175.659,421.704,166.452C427.246,153.887,432.012,146.776,440.797,149.206Z" fill="url(#Gradient-16)" transform="translate(434.698,166.561) translate(-434.698,-166.561)"/>
                    <path id="Vector_20" d="M435.01,160.469C434.154,162.505,431.8,163.637,429.764,163.012C427.727,162.386,426.771,160.211,427.627,158.176C428.482,156.141,430.837,155.008,432.874,155.634C434.91,156.259,435.865,158.435,435.01,160.469Z" fill="white" transform="translate(431.318,159.323) translate(-431.318,-159.323)"/>
                    <path id="Vector_21" d="M370.934,120.787C381.964,123.309,381.135,132.87,374.23,147.059C369.911,155.933,364.811,155.747,356.943,153.476C352.844,152.301,347.261,147.851,353.107,135.67C357.84,125.778,363.981,119.186,370.934,120.762L370.934,120.787Z" fill="url(#Gradient-17)" transform="translate(364.96,137.662) translate(-364.96,-137.662)"/>
                    <path id="Vector_22" d="M367.082,132.573C366.201,134.658,363.795,135.841,361.708,135.19C359.62,134.539,358.64,132.313,359.521,130.227C360.402,128.141,362.807,126.957,364.895,127.609C366.983,128.261,367.963,130.487,367.082,132.573Z" fill="white" transform="translate(363.301,131.399) translate(-363.301,-131.399)"/>
                </g>
            </g>
        </g>
    </g>
    <path d="M-5.12949,-1.67469C-5.12949,-1.67469,14.919,9,14.919,9C14.919,9,17.9245,7.41975,5.563,1.37522C-8.47091,-5.48707,-5.12949,-1.67469,-5.12949,-1.67469Z" fill="#ff8c15" stroke-linecap="square" stroke="none" transform="translate(371.62,116.198) rotate(-9.9877)" style="animation: 4s linear infinite both a0_d;"/>
    <path d="M-4.91979,-2.51052C-4.91979,-2.51052,16.9762,9.50741,16.9762,9.50741C16.9762,9.50741,20.2586,7.72831,6.75798,0.923176C-8.5691,-6.80262,-4.91979,-2.51052,-4.91979,-2.51052Z" fill="#ff8c15" stroke-linecap="square" stroke="none" transform="translate(440.834,147.387) rotate(-9.9877)" style="animation: 4s linear infinite both a1_d;"/>
</svg>
